<svg width="114" height="88" viewBox="0 0 114 88" fill="none" xmlns="http://www.w3.org/2000/svg">
<path d="M62.6905 44.8181C62.6905 48.9354 59.44 52.285 55.4447 52.285C51.4493 52.285 48.1988 48.9354 48.1988 44.8181C48.1988 42.7121 49.2401 40.5398 50.6649 39.098C50.7359 39.0277 50.788 38.9405 50.8164 38.8442C50.845 38.748 50.849 38.6462 50.828 38.548C50.8071 38.4498 50.762 38.3586 50.6968 38.283C50.6318 38.2072 50.5488 38.1494 50.4556 38.115L50.442 38.1099C50.3408 38.0725 50.2314 38.0636 50.1256 38.0844C50.0199 38.1053 49.9216 38.1549 49.8417 38.2279C48.9227 39.0547 48.1875 40.0696 47.6851 41.2059C47.1828 42.3419 46.9245 43.5732 46.9276 44.8181C46.9276 49.653 50.7408 53.5724 55.4447 53.5724C60.1486 53.5724 63.9617 49.653 63.9617 44.8181C63.9621 43.9421 63.8337 43.0709 63.5807 42.2331C63.5332 42.0835 63.4293 41.9589 63.2917 41.8864C63.1539 41.8139 62.9935 41.7992 62.8452 41.8458C62.8277 41.8511 62.8101 41.8563 62.7922 41.8612C62.7142 41.8818 62.6408 41.9181 62.5769 41.968C62.513 42.0182 62.4599 42.0807 62.4204 42.1521C62.3811 42.2235 62.3563 42.3023 62.3477 42.3836C62.3392 42.4649 62.347 42.5471 62.3707 42.6255C62.5833 43.3363 62.691 44.0752 62.6905 44.8181Z" fill="#333333" stroke="#333333" stroke-width="1.5" stroke-miterlimit="10"/>
<path d="M19.295 44.7986C19.295 48.9249 22.5136 52.282 26.4697 52.282C30.426 52.282 33.6447 48.9249 33.6447 44.7986C33.6447 42.6878 32.6135 40.5108 31.2025 39.0659C31.1325 38.9954 31.0808 38.9079 31.0526 38.8115C31.0243 38.7152 31.0205 38.6129 31.0411 38.5146C31.0618 38.4162 31.1066 38.3248 31.171 38.249C31.2355 38.173 31.3178 38.1152 31.4099 38.0807L31.4233 38.0756C31.5236 38.0379 31.257 38.512 31.5839 38.3131C31.6885 38.334 31.9532 38.514 32.0324 38.5872C32.9424 39.4157 33.6558 40.0397 34.1532 41.1783C34.6507 42.3169 34.9064 43.551 34.9033 44.7986C34.9033 49.6441 31.1275 53.5724 26.4697 53.5724C21.8121 53.5724 18.0362 49.6441 18.0362 44.7986C18.0359 43.9206 18.1631 43.0476 18.4134 42.2079C18.4606 42.058 18.5634 41.933 18.6998 41.8603C18.8361 41.7876 18.995 41.7731 19.1417 41.8197C19.1592 41.8251 19.1766 41.8302 19.1943 41.8352C19.2717 41.8557 19.3441 41.8922 19.4074 41.9423C19.4708 41.9924 19.5234 42.0552 19.5625 42.1268C19.6015 42.1984 19.6259 42.2773 19.6344 42.3588C19.6428 42.4403 19.6351 42.5227 19.6117 42.601C19.4013 43.3135 19.2944 44.054 19.295 44.7986Z" fill="#333333" stroke="#333333" stroke-width="1.5" stroke-miterlimit="10"/>
<path d="M76.9461 41.1943C76.6847 41.1295 76.4224 41.0625 76.1596 40.9906C76.1245 40.9808 76.0919 40.963 76.0644 40.9386C76.0367 40.9142 76.0151 40.8838 76.0005 40.8496C75.9861 40.8153 75.9794 40.778 75.9808 40.7408C75.9823 40.7035 75.9921 40.667 76.0092 40.634C76.311 40.085 76.5558 39.5051 76.7402 38.904C76.9122 38.2229 76.9503 37.5136 76.852 36.8175C76.7537 36.1213 76.5211 35.4522 76.1678 34.8491C75.8145 34.2462 75.3476 33.7215 74.7943 33.3056C74.2409 32.8899 73.6124 32.5913 72.9453 32.4274C72.2782 32.2636 71.586 32.2377 70.9091 32.3513C70.2322 32.4649 69.5842 32.7158 69.0028 33.0893C68.4215 33.4626 67.9186 33.9509 67.5234 34.5259C67.1282 35.1009 66.8487 35.751 66.7012 36.4379C66.4995 37.3279 66.515 38.2549 66.7462 39.1371C67.4113 41.5028 67.8614 44.0168 67.2566 46.6064C66.9874 47.7634 66.5582 48.8748 65.9821 49.9072C65.9524 49.962 65.9036 50.0031 65.8456 50.0224C65.7873 50.0419 65.7243 50.0378 65.6688 50.0114C65.6135 49.9848 65.57 49.9378 65.5471 49.8798C65.5241 49.8216 65.5236 49.7568 65.5454 49.6983C67.3379 44.8605 66.112 41.1919 65.7777 40.17L65.7766 40.1707C65.7058 39.994 65.6446 39.8154 65.5891 39.6354C65.5855 39.6258 65.5756 39.5871 65.5729 39.5774C65.2391 38.4608 65.2083 37.2721 65.4841 36.139C65.6697 35.2881 66.0187 34.4833 66.5103 33.772C67.0019 33.0604 67.6268 32.4564 68.3483 31.9949C69.0696 31.5333 69.8734 31.2233 70.7127 31.0833C71.552 30.9432 72.41 30.9757 73.2371 31.1787C74.064 31.3819 74.8432 31.7517 75.5296 32.2665C76.216 32.7813 76.7956 33.431 77.2349 34.1776C77.6742 34.9244 77.9643 35.7532 78.0882 36.6158C78.2124 37.4785 78.168 38.358 77.9576 39.203C77.8034 39.8644 77.5518 40.498 77.2117 41.082C77.1849 41.1271 77.1447 41.1625 77.0968 41.1827C77.0491 41.2029 76.9963 41.2069 76.9461 41.1943Z" fill="#333333" stroke="#333333" stroke-width="1.5" stroke-miterlimit="10"/>
<path d="M8.36684 55.8098C9.3405 53.6332 11.8985 52.8547 14.2093 53.7993C14.724 54.0098 15.706 54.5888 16.7922 55.9805C16.8229 56.0191 16.8449 56.0633 16.8569 56.1103C16.8688 56.1574 16.8704 56.2063 16.8616 56.254C16.8528 56.3017 16.8337 56.3472 16.8057 56.3876C16.7776 56.4278 16.741 56.4621 16.6984 56.4883C16.6461 56.5197 16.5891 56.5537 16.5283 56.5889C16.453 56.6326 16.3638 56.6491 16.2769 56.6357C16.1899 56.6225 16.1107 56.5799 16.0535 56.5159C15.0787 55.4132 14.303 54.8891 13.8168 54.6903C13.0269 54.3592 12.1319 54.3412 11.3281 54.6402C10.5243 54.9392 9.87731 55.5307 9.52905 56.285C8.8774 57.7419 9.59493 59.7229 11.1263 60.3107C11.2213 60.3456 11.3003 60.4115 11.3491 60.497C11.3979 60.5823 11.4133 60.6814 11.3927 60.7767C11.3581 60.9312 11.3197 61.0843 11.2774 61.2355C11.2643 61.2831 11.2407 61.3273 11.2081 61.3651C11.1756 61.4031 11.1349 61.4339 11.0889 61.4554C11.0428 61.477 10.9924 61.4888 10.9411 61.4903C10.8899 61.4915 10.8389 61.4822 10.7917 61.4631L10.7879 61.4614C9.68291 61.0189 8.8071 60.1749 8.35308 59.115C7.89905 58.0551 7.904 56.8662 8.36684 55.8098Z" fill="#333333" stroke="#333333" stroke-width="1.5" stroke-miterlimit="10"/>
<path d="M5.36996 41.0135C5.62809 40.9498 5.88694 40.8841 6.14622 40.8133C6.18093 40.8037 6.2131 40.7865 6.24029 40.7624C6.26748 40.7384 6.28904 40.7085 6.30331 40.6749C6.31758 40.6411 6.3242 40.6046 6.32271 40.5681C6.32122 40.5314 6.31162 40.4956 6.29466 40.4631C5.9969 39.9239 5.7551 39.3542 5.5732 38.7636C5.40343 38.0946 5.36595 37.398 5.46298 36.7141C5.56002 36.0301 5.78962 35.3729 6.13832 34.7806C6.48705 34.1884 6.94792 33.6729 7.49401 33.2645C8.04012 32.856 8.66047 32.5629 9.31886 32.4019C9.97726 32.241 10.6605 32.2155 11.3286 32.327C11.9967 32.4386 12.6364 32.6851 13.2101 33.0518C13.7839 33.4185 14.2804 33.8984 14.6704 34.4631C15.0605 35.0279 15.3363 35.6664 15.4819 36.3412C15.6809 37.2153 15.6657 38.126 15.4376 38.9926C14.7811 41.3167 14.3369 43.7861 14.9338 46.33C15.1995 47.4664 15.6231 48.5584 16.1917 49.5726C16.221 49.6263 16.2692 49.6667 16.3266 49.6858C16.3839 49.7047 16.4462 49.7009 16.5009 49.6748C16.5556 49.6487 16.5985 49.6027 16.6211 49.5456C16.6438 49.4885 16.6444 49.4248 16.6228 49.3672C14.8534 44.6149 16.0634 41.0111 16.3936 40.0074L16.3947 40.0081C16.4645 39.8345 16.5249 39.6589 16.5796 39.4821C16.5832 39.4728 16.593 39.4348 16.5955 39.425C16.925 38.3283 16.9554 37.1607 16.6834 36.0475C16.5 35.2116 16.1556 34.4213 15.6703 33.7224C15.1849 33.0237 14.5683 32.4304 13.8562 31.977C13.1441 31.5235 12.3508 31.2193 11.5225 31.0818C10.6942 30.9441 9.84726 30.9761 9.03109 31.1756C8.21494 31.3751 7.44579 31.7383 6.7684 32.2439C6.091 32.7497 5.51888 33.3877 5.0853 34.1212C4.65173 34.8546 4.36536 35.6687 4.24287 36.5161C4.12035 37.3635 4.16414 38.2273 4.37172 39.0572C4.52392 39.7071 4.77214 40.3295 5.10783 40.9032C5.13435 40.9476 5.17405 40.9823 5.22119 41.0021C5.26834 41.0219 5.32045 41.026 5.36996 41.0135Z" fill="#333333" stroke="#333333" stroke-width="1.5" stroke-miterlimit="10"/>
<path d="M25.3843 24.5054C25.3843 14.686 33.9244 9.26569 40.7064 9.26569C47.9907 9.26569 56.2796 14.686 56.2796 24.5054C56.2796 34.3248 49.3635 42.2852 40.832 42.2852C32.3005 42.2852 25.3843 34.3248 25.3843 24.5054Z" stroke="#333333" stroke-width="2.7" stroke-miterlimit="10"/>
<path d="M29.4393 67.0644C29.2945 66.8363 29.1474 66.6081 28.9954 66.3813C28.975 66.351 28.9481 66.3257 28.9166 66.3073C28.8853 66.289 28.8501 66.2782 28.8141 66.2754C28.7779 66.2726 28.7417 66.2783 28.708 66.2917C28.6741 66.3053 28.6439 66.3262 28.6193 66.3534C28.2147 66.8179 27.7633 67.2386 27.2724 67.6082C26.7045 67.9919 26.0667 68.2573 25.3964 68.3886C24.726 68.5198 24.0365 68.5145 23.3683 68.3728C22.7 68.2311 22.0664 67.956 21.5043 67.5634C20.942 67.171 20.4628 66.6689 20.0946 66.0867C19.7262 65.5046 19.4759 64.8538 19.3587 64.1725C19.2414 63.4913 19.2593 62.7931 19.4114 62.119C19.5636 61.4449 19.8466 60.8082 20.2445 60.2461C20.6422 59.6841 21.1466 59.208 21.7282 58.8456C22.4779 58.3662 23.3328 58.0814 24.2173 58.0164C26.6035 57.8855 29.0551 57.502 31.2313 56.0895C32.2038 55.4595 33.0824 54.6916 33.8403 53.8095C33.8809 53.7636 33.9026 53.7038 33.9013 53.6422C33.9 53.5807 33.8758 53.5218 33.8334 53.4777C33.791 53.4335 33.7337 53.4072 33.6729 53.4041C33.6121 53.4012 33.5526 53.4216 33.506 53.4612C29.6574 56.7311 25.8935 56.7488 24.8472 56.7605L24.8476 56.7592C24.6625 56.7489 24.4786 56.7484 24.2955 56.7537C24.2855 56.7533 24.2469 56.7565 24.2369 56.757C23.1042 56.8 22.0045 57.1545 21.056 57.7831C20.3366 58.235 19.7132 58.827 19.222 59.525C18.7307 60.2231 18.3812 61.0132 18.1942 61.8492C18.0071 62.6852 17.986 63.5507 18.1321 64.395C18.2782 65.2394 18.5885 66.046 19.0452 66.7676C19.5019 67.4894 20.0958 68.1122 20.7922 68.5993C21.4886 69.0865 22.2737 69.4286 23.1018 69.6057C23.9298 69.7828 24.7846 69.7913 25.6159 69.6309C26.4473 69.4703 27.2389 69.144 27.9448 68.6708C28.5007 68.3102 28.9992 67.866 29.4233 67.3536C29.4559 67.3134 29.4752 67.2637 29.4781 67.2118C29.481 67.1596 29.4674 67.1081 29.4393 67.0644Z" fill="#333333" stroke="#333333" stroke-width="1.5" stroke-miterlimit="10"/>
<path d="M72.5345 55.406C71.5609 53.2293 69.0028 52.4508 66.6921 53.3954C66.1774 53.6059 65.1954 54.185 64.1092 55.5767C64.0785 55.6152 64.0565 55.6595 64.0445 55.7064C64.0326 55.7536 64.031 55.8024 64.0398 55.8501C64.0486 55.8979 64.0676 55.9434 64.0957 55.9837C64.1238 56.0239 64.1603 56.0583 64.203 56.0845C64.2553 56.1159 64.3123 56.1498 64.3731 56.1851C64.4484 56.2288 64.5375 56.2453 64.6245 56.2319C64.7115 56.2187 64.7906 56.1761 64.8479 56.112C65.8227 55.0094 66.5984 54.4852 67.0846 54.2865C67.8745 53.9554 68.7695 53.9374 69.5733 54.2364C70.3771 54.5353 71.0241 55.1269 71.3723 55.8812C72.024 57.338 71.3065 59.319 69.7751 59.9069C69.68 59.9417 69.6011 60.0076 69.5523 60.0932C69.5035 60.1785 69.488 60.2776 69.5087 60.3729C69.5432 60.5274 69.5817 60.6804 69.624 60.8317C69.6371 60.8792 69.6607 60.9234 69.6933 60.9612C69.7258 60.9992 69.7664 61.0301 69.8125 61.0515C69.8586 61.0732 69.909 61.0849 69.9603 61.0864C70.0115 61.0877 70.0625 61.0783 70.1097 61.0593L70.1135 61.0576C71.2185 60.6151 72.0943 59.7711 72.5483 58.7112C73.0023 57.6513 72.9974 56.4624 72.5345 55.406Z" fill="#333333" stroke="#333333" stroke-width="1.5" stroke-miterlimit="10"/>
<path d="M51.462 66.6606C51.6069 66.4324 51.754 66.2043 51.906 65.9775C51.9264 65.9472 51.9533 65.9219 51.9848 65.9035C52.0161 65.8851 52.0512 65.8743 52.0873 65.8716C52.1235 65.8688 52.1597 65.8745 52.1934 65.8879C52.2272 65.9015 52.2574 65.9224 52.282 65.9496C52.6866 66.4141 53.138 66.8347 53.6289 67.2044C54.1968 67.5881 54.8346 67.8535 55.505 67.9847C56.1754 68.1159 56.8649 68.1106 57.533 67.9689C58.2014 67.8273 58.835 67.5521 59.3971 67.1596C59.9593 66.7672 60.4386 66.2651 60.8068 65.6829C61.1752 65.1007 61.4255 64.4499 61.5427 63.7687C61.6599 63.0874 61.6421 62.3893 61.4899 61.7152C61.3378 61.0411 61.0547 60.4044 60.6568 59.8423C60.2591 59.2803 59.7547 58.8042 59.1732 58.4417C58.4235 57.9624 57.5685 57.6775 56.6841 57.6126C54.2979 57.4817 51.8463 57.0981 49.6701 55.6857C48.6975 55.0556 47.8189 54.2877 47.061 53.4057C47.0204 53.3598 46.9988 53.3 47 53.2383C47.0013 53.1768 47.0255 53.1179 47.0679 53.0739C47.1104 53.0296 47.1677 53.0034 47.2285 53.0003C47.2893 52.9973 47.3488 53.0177 47.3954 53.0574C51.244 56.3273 55.0079 56.3449 56.0542 56.3567L56.0538 56.3554C56.2389 56.3451 56.4227 56.3445 56.6058 56.3499C56.6159 56.3495 56.6544 56.3526 56.6645 56.3532C57.7972 56.3961 58.8969 56.7507 59.8454 57.3793C60.5647 57.8311 61.1881 58.4232 61.6794 59.1212C62.1707 59.8193 62.5201 60.6094 62.7072 61.4454C62.8943 62.2814 62.9154 63.1469 62.7693 63.9911C62.6232 64.8355 62.3128 65.6422 61.8561 66.3638C61.3995 67.0856 60.8055 67.7083 60.1091 68.1954C59.4127 68.6827 58.6277 69.0248 57.7995 69.2019C56.9715 69.379 56.1168 69.3874 55.2855 69.227C54.454 69.0664 53.6624 68.7401 52.9566 68.267C52.4007 67.9064 51.9021 67.4622 51.478 66.9498C51.4455 66.9096 51.4262 66.8599 51.4233 66.8079C51.4203 66.7558 51.434 66.7042 51.462 66.6606Z" fill="#333333" stroke="#333333" stroke-width="1.5" stroke-miterlimit="10"/>
<path d="M47.454 48.2449C47.4034 48.1436 47.3479 48.0443 47.288 47.9474C46.9039 46.9345 46.0042 45.7686 44.8397 44.8553C43.6953 43.958 42.2845 43.2962 40.8395 43.2693V42.7144C42.5661 42.7423 44.2084 43.5594 45.4956 44.6476C46.7701 45.7251 47.6835 47.0577 47.984 48.128L47.454 48.2449Z" fill="#333333" stroke="#333333"/>
<path d="M34.544 48.2449C34.5946 48.1436 34.6501 48.0443 34.71 47.9474C35.0941 46.9345 35.9938 45.7686 37.1583 44.8553C38.3027 43.958 39.7135 43.2962 41.1585 43.2693V42.7144C39.4319 42.7423 37.7896 43.5594 36.5023 44.6476C35.2279 45.7251 34.3145 47.0577 34.014 48.128L34.544 48.2449Z" fill="#333333" stroke="#333333"/>
<path d="M36.2477 44.6949L34.5528 47.0023L34.0684 41.1058L38.9115 42.9004L36.2477 44.6949Z" fill="#333333" stroke="#333333" stroke-width="2" stroke-miterlimit="10"/>
<path d="M45.5999 44.7608L47.4119 47.0023L47.9296 41.2743L42.7525 43.0176L45.5999 44.7608Z" fill="#333333" stroke="#333333" stroke-width="2" stroke-miterlimit="10"/>
</svg>
